<svg xmlns="http://www.w3.org/2000/svg" viewBox="0 0 39.51 38.48"><defs><style>.cls-1{fill:#fff;}</style></defs><g id="Capa_2" data-name="Capa 2"><g id="Layer_1" data-name="Layer 1"><path class="cls-1" d="M31.05.42a.65.65,0,1,0-1.22.47l1.89,4.87,0,0L30.36,7.2,28.65,2.66a.64.64,0,0,0-.84-.38.65.65,0,0,0-.38.83l1.89,5,0,.06-3.29,3.29a15.57,15.57,0,1,0,.92.92l2.93-2.92a.63.63,0,0,0,.46.27l6.12.67h.07a.65.65,0,0,0,.07-1.3l-5.74-.63,1.69-1.69.08,0,6.12.67h.07a.65.65,0,0,0,.08-1.3l-5.18-.57,3.14-3.14A.65.65,0,0,0,36,1.58L32.75,4.81ZM29.79,22.93a14.25,14.25,0,1,1-4.65-10.52l-3.08,3.08a9.92,9.92,0,1,0,.92.92l3.08-3.07A14.19,14.19,0,0,1,29.79,22.93Zm-14.71.46a.66.66,0,0,0,.93,0l2-2a3,3,0,1,1-.93-.92l-2,2A.66.66,0,0,0,15.08,23.39Zm3-3.87a4.31,4.31,0,1,0,.92.93l3.11-3.11a8.61,8.61,0,1,1-.92-.92Z"/></g></g></svg>