<svg xmlns="http://www.w3.org/2000/svg" viewBox="0 0 39.59 38.49"><defs><style>.cls-1{fill:#0a68cb;}</style></defs><g id="Capa_2" data-name="Capa 2"><g id="Capa_1-2" data-name="Capa 1"><g id="Capa_2-2" data-name="Capa 2"><g id="Layer_1" data-name="Layer 1"><path class="cls-1" d="M31.13.42A.65.65,0,0,0,30.29,0a.66.66,0,0,0-.38.85L31.8,5.76h0L30.44,7.2,28.73,2.66a.64.64,0,0,0-.82-.39h0a.65.65,0,0,0-.38.83l1.89,5v.06l-3.29,3.29a15.57,15.57,0,1,0,.92.92L30,9.46a.65.65,0,0,0,.46.27l6.12.67h.07a.65.65,0,1,0,.07-1.3l-5.74-.63,1.69-1.69h.08l6.12.67h.07A.65.65,0,1,0,39,6.15h0L33.8,5.58l3.14-3.14a.65.65,0,0,0-.32-.86.64.64,0,0,0-.54,0L32.83,4.81ZM29.87,22.93a14.25,14.25,0,1,1-4.65-10.52l-3.08,3.08a9.92,9.92,0,1,0,.92.92l3.08-3.07A14.19,14.19,0,0,1,29.87,22.93Zm-14.71.46a.67.67,0,0,0,.93,0l2-2a3,3,0,1,1-.93-.92l-2,2A.66.66,0,0,0,15.16,23.39Zm3-3.87a4.31,4.31,0,1,0,.92.93l3.11-3.11a8.61,8.61,0,1,1-.92-.92Z"/></g></g></g></g></svg>