<svg xmlns="http://www.w3.org/2000/svg" viewBox="0 0 474.37 100"><defs><style>.cls-1{fill:#fff;}</style></defs><g id="Capa_2" data-name="Capa 2"><g id="Capa_1-2" data-name="Capa 1"><g id="Capa_2-2" data-name="Capa 2"><g id="Capa_1-2-2" data-name="Capa 1-2"><path class="cls-1" d="M50.41,0a50,50,0,0,1,1,100H50.14C22.66,99.91,0,77.34,0,50.05A50.14,50.14,0,0,1,50.32,0ZM11.28,50.23A39.38,39.38,0,0,0,50.41,89.17c21.38,0,39.4-18.2,39.21-39.4a39.17,39.17,0,0,0-78.34.46Z"/><path class="cls-1" d="M298.08,49.59c0,6.55-.09,13,.09,19.47,0,2.19-.63,2.73-2.82,2.82-10.1.37-10.1.46-10.1-9.73V50.32h0a1.1,1.1,0,0,0-1.09-1.09,1.27,1.27,0,0,0-.91.45l-3.91,5.19c-3.28,4.37-6.37,8.92-9.56,13.28-1.45,2-2.18,1.82-3.54-.18-4.28-6-8.74-12-13.11-17.92h0a1.4,1.4,0,0,0-1.91-.19,1.84,1.84,0,0,0-.54,1v.18c-.09,5.73-.19,11.46,0,17.19.09,2.73-.55,3.64-3.46,3.64-9.28,0-9.28.19-9.28-9.09,0-10.29.09-20.57-.09-30.85,0-2.73.54-3.73,3.64-4,6.82-.64,10.92,1.63,14.74,7.55,3.55,5.37,6.73,9.83,10,14.56,1.36,2,2.09,1.91,3.45-.09,4-6,8.19-11.92,12.38-17.93,2.27-3.27,9.55-6,15-3.82.64.27.82,1.73.82,2.64C298.17,37.13,298.08,43.4,298.08,49.59Z"/><path class="cls-1" d="M447.49,71.79c-4.64,0-9.38.09-14,0-7.73-.18-12.73-5.18-12.83-12.74-.09-6.09-.09-12.1,0-18.1.1-7.46,4.92-12.56,12.47-12.65,9.65-.18,19.29-.18,29,0,7.09.18,11.92,4.91,12.1,12,.18,6.37.18,12.65,0,19-.18,7.46-5.19,12.37-12.65,12.55C456.86,71.88,452.22,71.79,447.49,71.79Zm-10.1-33.66c-2.91-.09-4.19,1.09-4.1,4V57.51c-.09,3.18,1.55,4.27,4.46,4.18h19.47c3,0,4.37-1.18,4.28-4.36V42.86c.27-4-1.46-5-5.1-4.82Z"/><path class="cls-1" d="M151,71.79c-4.73,0-9.37.09-14.1,0-7.73-.09-12.92-4.91-13.19-12.55-.19-6.19-.19-12.38,0-18.66.27-7.28,5.18-12.28,12.37-12.37,12.1-.18,24.2-.09,36.31-.18,2,0,2.63.18,1.82,2.45-2.46,7.28-2.64,7.56-10.56,7.56-7.55,0-15.1.18-22.66-.09-3.45-.1-4.55,1.36-4.45,4.54.09,4.74.18,9.38,0,14.11-.19,3.73,1.18,5.09,5,5.09,9.64-.18,19.38,0,29-.09,2.73,0,3.36.55,2.36,3.28-2.64,6.91-2.55,6.91-10.1,6.91Z"/><path class="cls-1" d="M210.82,28.12c6,0,12.1.09,18.2,0,2.18,0,2.46.54,1.73,2.55-2.37,7.09-2.64,7.46-10.1,7.46s-15.1.18-22.66-.09c-3.64-.09-4.82,2.09-4.82,5.91,0,3.28.82,6.37,5,6.19,7.37-.37,14.83,0,22.2-.18,2.82-.1,2.82.81,2,3-2.55,6.82-2.46,6.91-10.1,6.91-5.19,0-10.28.19-15.47,0-2.82-.09-3.55.73-3.64,3.55,0,8.46-.18,8.28-8.55,8.37-3,0-4.28-.45-4.19-3.82.28-8.92,0-17.83.09-26.75.09-7.92,4.64-12.74,12.56-13,3-.09,6-.09,9.1-.09Z"/><path class="cls-1" d="M394.17,28.12c6.82,0,13.65.09,20.47-.09,2.82-.09,2.82.73,2,3-2.55,7-2.55,7.1-10,7.1-9.55,0-9.55,0-9.64,9.73,0,7-.09,13.92,0,20.93,0,2.37-.64,3-3,3.09-9.73.28-9.73.37-9.73-9.09,0-7.1-.09-14.2,0-21.39.09-2.54-.73-3.45-3.28-3.36-4.18.18-8.46,0-12.74.09-2.09.09-3-.09-2.09-2.64,2.55-7.1,2.73-7.37,10.28-7.37Z"/><path class="cls-1" d="M42.13,31.39a81.52,81.52,0,0,1,11.37,2.1A58.7,58.7,0,0,0,79,34.67c2.18-.36,4-1.27,2.82,2.64C79.16,46,78.89,46.5,69.88,47c-13.47.73-18-4.36-29.48-3.82-2.28.09-3.19.91-3.73,2.55-2.46,7.46-2.91,6.73,4.28,6.92,11.64.27,19.47,5.09,33,2.54,3.37-.82,3,.09,2.37,2.64C74.07,66.33,74,67.33,65.51,68a57.06,57.06,0,0,1-18-1.91C38.94,64,30.57,62.79,22,65.15c-2.73.73-3.09,0-2.28-2.55C22.11,54.32,24.2,46,26.66,37.76,27.93,32.67,35.12,30.85,42.13,31.39Z"/><path class="cls-1" d="M333.39,71.79c-4.64,0-9.38.09-14,0-7.73-.18-12.74-5.18-12.83-12.74-.09-6.09-.09-12.1,0-18.1.09-7.46,4.92-12.56,12.47-12.65,9.64-.18,19.29-.18,29,0,7.09.18,11.91,4.91,12.19,12,.18,6.37.18,12.65,0,19-.18,7.46-5.19,12.37-12.65,12.55C342.76,71.88,338,71.79,333.39,71.79Zm-10.1-33.66c-2.92-.09-4.19,1.09-4.1,4V57.51c-.09,3.18,1.55,4.27,4.46,4.18H343c3,0,4.37-1.18,4.28-4.36V42.86c.27-4-1.46-5-5.1-4.82Z"/></g></g></g></g></svg>