<svg xmlns="http://www.w3.org/2000/svg" viewBox="0 0 34.76 31.61"><defs><style>.cls-1{fill:#d7e1eb;}</style></defs><g id="Capa_2" data-name="Capa 2"><g id="Layer_1" data-name="Layer 1"><path class="cls-1" d="M10.4,9.86H23.92a.46.46,0,0,0,0-.92H10.4a.46.46,0,1,0,0,.92Z"/><path class="cls-1" d="M24.38,13.46a.47.47,0,0,0-.46-.46H10.4a.47.47,0,1,0,0,.93H23.92A.47.47,0,0,0,24.38,13.46Z"/><path class="cls-1" d="M34.47,12.33l-5.7-4.18v-1A3.74,3.74,0,0,0,25,3.5H22.4L17.79.13a.72.72,0,0,0-.82,0L12.36,3.5H9.79A3.73,3.73,0,0,0,6,7.15v1L.28,12.33a.7.7,0,0,0-.28.55S0,13,0,13s0,.06,0,.09V30.35a.68.68,0,0,0,.07.28.69.69,0,0,0,.62,1H34.06a.69.69,0,0,0,.63-1,.68.68,0,0,0,.07-.28V13.09s0-.06,0-.09,0-.08,0-.12A.66.66,0,0,0,34.47,12.33ZM7.38,7.15A2.34,2.34,0,0,1,9.79,4.89H25a2.34,2.34,0,0,1,2.41,2.26v9.94l-5.46,4a.68.68,0,0,0-.26.12l-4.24,3.2L13,21.16h0l-5.6-4.07Zm-6,7.3,10,7.27L1.39,29ZM2.72,30.22l9.87-7.64L17,25.79a.69.69,0,0,0,.83,0l4.23-3.19L32,30.22ZM33.37,29l-10-7.27,10-7.27Z"/></g></g></svg>