<svg xmlns="http://www.w3.org/2000/svg" viewBox="0 0 60.21 50.38"><defs><style>.cls-1{fill:#0a68cb;}</style></defs><g id="Capa_2" data-name="Capa 2"><g id="Capa_1-2" data-name="Capa 1"><g id="Capa_2-2" data-name="Capa 2"><g id="Layer_1" data-name="Layer 1"><path class="cls-1" d="M41.63,50.38h-.15l-5.76-1.1a.8.8,0,0,1-.64-.92v0l.49-2.59-.34-.17a15.09,15.09,0,0,1-3-1.94L32,43.38l-2.18,1.48a.86.86,0,0,1-.46.14h-.14a.77.77,0,0,1-.52-.34L25.41,39.8a.79.79,0,0,1-.13-.6.78.78,0,0,1,.34-.51l2.19-1.49-.12-.36A14.59,14.59,0,0,1,27,33.38V33l-2.59-.5a.8.8,0,0,1-.64-.94l1.1-5.75a.8.8,0,0,1,.79-.66h.15l2.59.49.17-.34a15.49,15.49,0,0,1,1.94-2.95l.25-.29-1.49-2.18a.82.82,0,0,1-.12-.61.78.78,0,0,1,.34-.51l4.84-3.29a.8.8,0,0,1,.45-.14h.15a.87.87,0,0,1,.52.34l1.48,2.19.36-.12A14.59,14.59,0,0,1,40.72,17h.38l.49-2.6a.78.78,0,0,1,.34-.51.8.8,0,0,1,.45-.14h.15l5.76,1.1a.78.78,0,0,1,.51.34.8.8,0,0,1,.13.6l-.5,2.59.34.17a15.13,15.13,0,0,1,3,1.95l.29.24,2.19-1.49a.8.8,0,0,1,.45-.14h.15a.78.78,0,0,1,.51.34l3.3,4.84a.81.81,0,0,1-.22,1.12L56.17,27l.12.36A15.86,15.86,0,0,1,57,30.77v.38l2.59.49a.87.87,0,0,1,.52.34.9.9,0,0,1,.12.6l-1.1,5.76a.8.8,0,0,1-.79.65h-.15l-2.59-.5-.17.34a14.81,14.81,0,0,1-1.94,3l-.25.29,1.49,2.19a.8.8,0,0,1-.21,1.11l-4.85,3.3a.8.8,0,0,1-.45.14H49a.73.73,0,0,1-.51-.34L47,46.34l-.36.12a14.59,14.59,0,0,1-3.46.72h-.38l-.49,2.59A.79.79,0,0,1,41.63,50.38Zm-9.55-8.83a.82.82,0,0,1,.56.22,13.14,13.14,0,0,0,4.16,2.74.81.81,0,0,1,.48.89l-.47,2.44,4.18.79.47-2.43a.81.81,0,0,1,.77-.66,13.22,13.22,0,0,0,4.88-1,.77.77,0,0,1,.3-.06.81.81,0,0,1,.67.35l1.39,2.06,3.5-2.4-1.4-2.06a.82.82,0,0,1,.09-1,13.49,13.49,0,0,0,2.74-4.16.79.79,0,0,1,.74-.49h.15l2.44.47.79-4.18-2.43-.46a.8.8,0,0,1-.66-.78,13.58,13.58,0,0,0-1-4.87.8.8,0,0,1,.29-1l2.06-1.4L54.39,21l-2.06,1.4a.8.8,0,0,1-.45.14.79.79,0,0,1-.56-.23,13.28,13.28,0,0,0-4.16-2.73.81.81,0,0,1-.48-.89l.47-2.44L43,15.52,42.51,18a.8.8,0,0,1-.77.65,13.54,13.54,0,0,0-4.87,1,.85.85,0,0,1-.31.06.79.79,0,0,1-.66-.35l-1.4-2L31,19.67l1.4,2a.81.81,0,0,1-.09,1,13.4,13.4,0,0,0-2.73,4.16.82.82,0,0,1-.74.5h-.15l-2.44-.46L25.42,31l2.44.47a.82.82,0,0,1,.65.77,13.18,13.18,0,0,0,1,4.88.8.8,0,0,1-.29,1l-2,1.39,2.39,3.52,2.05-1.39A.85.85,0,0,1,32.08,41.55Z"/><path class="cls-1" d="M42,40.94a8.34,8.34,0,0,1-1.66-.16A8.86,8.86,0,0,1,42,23.21a10.61,10.61,0,0,1,1.68.16A8.86,8.86,0,0,1,42,40.94Zm0-16.12a7.26,7.26,0,0,0-1.34,14.39,7,7,0,0,0,1.37.13A7.26,7.26,0,0,0,43.35,25,8,8,0,0,0,42,24.82Z"/><path class="cls-1" d="M27,9.7a.7.7,0,0,0-.73-.57L24.3,9.4l-.1-.21A11.93,11.93,0,0,0,22.86,6.9l-.14-.18,1.16-1.55a.72.72,0,0,0,.12-.5.67.67,0,0,0-.26-.45L20.22,1.58a.79.79,0,0,0-.49-.13h0a.73.73,0,0,0-.45.27L18.11,3.26l-.21-.08a11.73,11.73,0,0,0-2.59-.66h-.23L14.81.58A.7.7,0,0,0,14.08,0L9.68.63a.67.67,0,0,0-.45.26.72.72,0,0,0-.13.51l.28,1.91-.21.09a11.32,11.32,0,0,0-2.3,1.36l-.18.14L5.15,3.74a.86.86,0,0,0-.49-.13h0a.68.68,0,0,0-.44.27L1.55,7.41a.7.7,0,0,0,.14.95L3.24,9.51l-.09.22a11.51,11.51,0,0,0-.66,2.58v.23l-1.91.27a.64.64,0,0,0-.44.27.64.64,0,0,0-.13.5l.62,4.36a.68.68,0,0,0,.73.58l2-.28.09.21a10.92,10.92,0,0,0,1.37,2.3l.14.18L3.72,22.47a.67.67,0,0,0-.13.51.69.69,0,0,0,.27.45l3.52,2.64a.74.74,0,0,0,.41.13.68.68,0,0,0,.54-.27l1.16-1.55.21.09a11.45,11.45,0,0,0,2.59.66h.22L12.79,27a.6.6,0,0,0,.26.44.68.68,0,0,0,.41.14h.08L18,27a.67.67,0,0,0,.44-.27.64.64,0,0,0,.13-.5l-.27-1.91.21-.09a11.11,11.11,0,0,0,2.29-1.37l.18-.13,1.55,1.15a.66.66,0,0,0,.94-.12h0l2.64-3.53a.68.68,0,0,0-.14-.95l-1.54-1.16.08-.21a11.45,11.45,0,0,0,.66-2.59v-.23l1.91-.27a.64.64,0,0,0,.45-.26.77.77,0,0,0,.13-.51ZM23.8,14.47a9.67,9.67,0,0,1-.92,3.59.7.7,0,0,0,.21.84L24.55,20l-1.83,2.44-1.43-1.08a.76.76,0,0,0-.41-.13.66.66,0,0,0-.45.17,9.84,9.84,0,0,1-3.19,1.89.67.67,0,0,0-.44.74l.25,1.77-3,.43-.26-1.77a.67.67,0,0,0-.63-.58A9.92,9.92,0,0,1,9.57,23a1,1,0,0,0-.29-.07.66.66,0,0,0-.54.28l-1.09,1.4L5.21,22.75l1.08-1.44a.68.68,0,0,0,0-.85,9.78,9.78,0,0,1-1.89-3.2.7.7,0,0,0-.69-.44l-1.82.26-.43-3,1.77-.25a.7.7,0,0,0,.58-.63,10,10,0,0,1,.92-3.6.67.67,0,0,0-.21-.83L3.05,7.68,4.88,5.24,6.31,6.31a.68.68,0,0,0,.41.14.7.7,0,0,0,.45-.17,9.94,9.94,0,0,1,3.19-1.9.68.68,0,0,0,.44-.73l-.26-1.77,3-.44.25,1.77a.68.68,0,0,0,.63.59,10,10,0,0,1,3.6.92.72.72,0,0,0,.29.06.68.68,0,0,0,.54-.27L20,3.08,22.38,4.9,21.31,6.34a.68.68,0,0,0,0,.85,10,10,0,0,1,1.9,3.19.67.67,0,0,0,.69.45l1.81-.26.44,3-1.77.25a.68.68,0,0,0-.56.65Z"/><path class="cls-1" d="M13.8,7.08a8.26,8.26,0,0,0-1,.07,6.76,6.76,0,1,0,1-.07Zm0,1.36a5.38,5.38,0,0,1,.76,10.71,4.85,4.85,0,0,1-.76.05A5.38,5.38,0,0,1,13,8.5,4.9,4.9,0,0,1,13.8,8.44Z"/></g></g></g></g></svg>