<svg xmlns="http://www.w3.org/2000/svg" viewBox="0 0 60.31 50.38"><defs><style>.cls-1{fill:#fff;}</style></defs><g id="Capa_2" data-name="Capa 2"><g id="Layer_1" data-name="Layer 1"><path class="cls-1" d="M41.66,50.38l-.15,0-5.76-1.1a.79.79,0,0,1-.63-.94l.49-2.59-.34-.17a15.18,15.18,0,0,1-3-1.94L32,43.38l-2.18,1.48a.83.83,0,0,1-.46.14h-.14a.78.78,0,0,1-.52-.34L25.44,39.8a.79.79,0,0,1-.13-.6.78.78,0,0,1,.34-.51l2.19-1.49-.12-.36A14.59,14.59,0,0,1,27,33.38L27,33l-2.59-.5a.81.81,0,0,1-.64-.94l1.1-5.75a.81.81,0,0,1,.79-.66l.15,0,2.59.49.17-.34a15.49,15.49,0,0,1,1.94-2.95l.25-.29-1.49-2.18a.82.82,0,0,1-.12-.61.78.78,0,0,1,.34-.51l4.84-3.29a.82.82,0,0,1,.45-.14h.15a.84.84,0,0,1,.52.34l1.48,2.19.36-.12a14.7,14.7,0,0,1,3.46-.72l.38,0,.49-2.6a.78.78,0,0,1,.34-.51.8.8,0,0,1,.45-.14h.15l5.76,1.1a.78.78,0,0,1,.51.34.8.8,0,0,1,.13.6l-.5,2.59.34.17a14.79,14.79,0,0,1,3,1.95l.29.24,2.19-1.49a.8.8,0,0,1,.45-.14l.15,0a.78.78,0,0,1,.51.34l3.3,4.84a.81.81,0,0,1-.22,1.12L56.2,27l.12.36A15.9,15.9,0,0,1,57,30.77l0,.38,2.59.49a.84.84,0,0,1,.52.34.85.85,0,0,1,.12.6l-1.1,5.76a.8.8,0,0,1-.79.65h-.15l-2.59-.5-.17.34a14.74,14.74,0,0,1-1.94,3l-.25.29,1.49,2.19a.8.8,0,0,1-.21,1.11l-4.85,3.3a.8.8,0,0,1-.45.14l-.15,0a.76.76,0,0,1-.51-.34l-1.49-2.18-.36.12a15.22,15.22,0,0,1-3.46.72l-.38,0-.49,2.59A.8.8,0,0,1,41.66,50.38Zm-9.55-8.83a.82.82,0,0,1,.56.22,13.08,13.08,0,0,0,4.16,2.74.8.8,0,0,1,.48.89l-.47,2.44,4.18.79.47-2.43a.81.81,0,0,1,.77-.66,13.23,13.23,0,0,0,4.88-1,.77.77,0,0,1,.3-.06.81.81,0,0,1,.67.35l1.39,2.06L53,44.49l-1.4-2.06a.82.82,0,0,1,.09-1,13.43,13.43,0,0,0,2.74-4.16.79.79,0,0,1,.74-.49h.15l2.44.47.79-4.18-2.43-.46a.81.81,0,0,1-.66-.78,13.42,13.42,0,0,0-1-4.87.81.81,0,0,1,.29-1l2.06-1.4-2.39-3.52-2.06,1.4a.8.8,0,0,1-.45.14.79.79,0,0,1-.56-.23,13.23,13.23,0,0,0-4.16-2.73.81.81,0,0,1-.48-.89l.47-2.44L43,15.52,42.54,18a.8.8,0,0,1-.77.65,13.34,13.34,0,0,0-4.87,1,.81.81,0,0,1-.31.06.79.79,0,0,1-.66-.35l-1.4-2L31,19.67l1.4,2a.81.81,0,0,1-.09,1,13.34,13.34,0,0,0-2.73,4.16.82.82,0,0,1-.74.5l-.15,0-2.44-.46-.8,4.17,2.44.47a.81.81,0,0,1,.65.77,13.43,13.43,0,0,0,1,4.88.8.8,0,0,1-.29,1l-2.05,1.39,2.39,3.52,2.05-1.39A.82.82,0,0,1,32.11,41.55Z"/><path class="cls-1" d="M42,40.94a8.34,8.34,0,0,1-1.66-.16A8.86,8.86,0,0,1,42,23.21a9.55,9.55,0,0,1,1.68.16A8.86,8.86,0,0,1,42,40.94Zm0-16.12a7.26,7.26,0,0,0-1.34,14.39,7.85,7.85,0,0,0,1.37.13A7.26,7.26,0,0,0,43.38,25,7.16,7.16,0,0,0,42,24.82Z"/><path class="cls-1" d="M27,9.7a.69.69,0,0,0-.73-.57l-1.94.27-.1-.21A11.53,11.53,0,0,0,22.89,6.9l-.14-.18,1.16-1.55a.69.69,0,0,0,.12-.5.64.64,0,0,0-.26-.45L20.25,1.58a.75.75,0,0,0-.49-.13h0a.69.69,0,0,0-.45.27L18.14,3.26l-.21-.08a11.2,11.2,0,0,0-2.59-.66l-.23,0L14.84.58A.69.69,0,0,0,14.11,0L9.71.63a.67.67,0,0,0-.45.26.72.72,0,0,0-.13.51l.28,1.91L9.2,3.4A11.32,11.32,0,0,0,6.9,4.76l-.18.14L5.18,3.74a.82.82,0,0,0-.49-.13h0a.68.68,0,0,0-.44.27L1.58,7.41a.7.7,0,0,0,.14.95L3.27,9.51l-.09.22a11.51,11.51,0,0,0-.66,2.58l0,.23-1.91.27a.64.64,0,0,0-.44.27.64.64,0,0,0-.13.5l.62,4.36a.69.69,0,0,0,.73.58l2-.28.09.21a10.92,10.92,0,0,0,1.37,2.3l.14.18L3.75,22.47a.67.67,0,0,0-.13.51.69.69,0,0,0,.27.45l3.52,2.64a.74.74,0,0,0,.41.13.68.68,0,0,0,.54-.27l1.16-1.55.21.09a11.73,11.73,0,0,0,2.59.66l.22,0,.28,1.91a.63.63,0,0,0,.26.44.68.68,0,0,0,.41.14h.08L18,27a.67.67,0,0,0,.44-.27.64.64,0,0,0,.13-.5l-.27-1.91.21-.09a11.11,11.11,0,0,0,2.29-1.37l.18-.13,1.55,1.15a.67.67,0,0,0,.95-.13l2.64-3.53a.68.68,0,0,0-.14-.95l-1.54-1.16.08-.21a11.2,11.2,0,0,0,.66-2.59l0-.23,1.91-.27a.67.67,0,0,0,.45-.26.72.72,0,0,0,.13-.51Zm-3.17,4.77a9.63,9.63,0,0,1-.92,3.59.7.7,0,0,0,.21.84L24.58,20l-1.83,2.44-1.43-1.08a.74.74,0,0,0-.41-.13.66.66,0,0,0-.45.17,9.84,9.84,0,0,1-3.19,1.89.68.68,0,0,0-.44.74l.25,1.77-3,.43-.26-1.77a.67.67,0,0,0-.63-.58,9.92,9.92,0,0,1-3.59-.92.77.77,0,0,0-.29-.07.68.68,0,0,0-.54.28L7.68,24.57,5.24,22.75l1.08-1.44a.68.68,0,0,0,0-.85,9.88,9.88,0,0,1-1.89-3.2.7.7,0,0,0-.69-.44l-1.82.26-.43-3,1.77-.25a.69.69,0,0,0,.58-.63,10,10,0,0,1,.92-3.6.67.67,0,0,0-.21-.83L3.08,7.68,4.91,5.24,6.34,6.31a.68.68,0,0,0,.41.14.7.7,0,0,0,.45-.17,10,10,0,0,1,3.19-1.9.69.69,0,0,0,.44-.73l-.26-1.77,3-.44.25,1.77a.69.69,0,0,0,.63.59,9.82,9.82,0,0,1,3.6.92.72.72,0,0,0,.29.06.68.68,0,0,0,.54-.27L20,3.08,22.41,4.9,21.34,6.34a.68.68,0,0,0,0,.85,10,10,0,0,1,1.9,3.19.69.69,0,0,0,.69.45l1.81-.26.44,3-1.77.25A.68.68,0,0,0,23.85,14.47Z"/><path class="cls-1" d="M13.83,7.08a7.75,7.75,0,0,0-1,.07,6.76,6.76,0,0,0-5.71,7.63,6.76,6.76,0,0,0,6.66,5.78,6.42,6.42,0,0,0,1-.07,6.74,6.74,0,0,0,5.71-7.62A6.78,6.78,0,0,0,13.83,7.08Zm0,1.36a5.38,5.38,0,0,1,.76,10.71,4.93,4.93,0,0,1-.76.05,5.38,5.38,0,0,1-4.31-8.6,5.35,5.35,0,0,1,3.54-2.1A5.09,5.09,0,0,1,13.83,8.44Z"/></g></g></svg>