<svg xmlns="http://www.w3.org/2000/svg" viewBox="0 0 32.56 32.86"><defs><style>.cls-1{fill:#d7e1eb;}</style></defs><g id="Capa_2" data-name="Capa 2"><g id="Layer_1" data-name="Layer 1"><path class="cls-1" d="M31.07,17.06a1.5,1.5,0,0,0,1.49-1.5A15.58,15.58,0,0,0,17,0a1.5,1.5,0,0,0,0,3A12.58,12.58,0,0,1,29.57,15.56,1.5,1.5,0,0,0,31.07,17.06Z"/><path class="cls-1" d="M16.84,5a1.5,1.5,0,0,0,0,3,7.72,7.72,0,0,1,7.71,7.71,1.5,1.5,0,0,0,3,0A10.72,10.72,0,0,0,16.84,5Z"/><path class="cls-1" d="M22.72,32.82a5.79,5.79,0,0,0,.72,0,6.64,6.64,0,0,0,3.48-.92,5,5,0,0,0,1.24-1l1-1.06a5.12,5.12,0,0,0-.36-7.22L27.14,21.2a5.1,5.1,0,0,0-7.21.36l-1,1.06A5,5,0,0,0,18.09,24a17.85,17.85,0,0,1-8.76-8,5.2,5.2,0,0,0,1.8-1.28l1-1.06a5.13,5.13,0,0,0-.36-7.22L10.11,4.93a5.12,5.12,0,0,0-7.22.36l-1,1.06c-.13.15-.26.31-.38.47A6,6,0,0,0,.15,12.41,25.37,25.37,0,0,0,22.72,32.82ZM2.53,7.86,2.6,7.8l0,0,.06-.07c.09-.13.19-.26.29-.38l1-1A3.7,3.7,0,0,1,6.69,5,3.66,3.66,0,0,1,9.16,6l1.61,1.46A3.62,3.62,0,0,1,12,10,3.67,3.67,0,0,1,11,12.66l-1,1.05h0a3.66,3.66,0,0,1-1.67,1.06l-.29.09a.72.72,0,0,0-.45.4.7.7,0,0,0,0,.6l.13.27A19.25,19.25,0,0,0,18,25.46l.25.1a.68.68,0,0,0,.56,0,.7.7,0,0,0,.38-.41l.08-.26a3.87,3.87,0,0,1,.76-1.3l1-1.05a3.67,3.67,0,0,1,5.21-.26l1.62,1.46a3.69,3.69,0,0,1,.26,5.2l-1,1.06a3.74,3.74,0,0,1-.92.74,5.49,5.49,0,0,1-3.35.69A24,24,0,0,1,1.54,12.14,4.68,4.68,0,0,1,2.53,7.86Z"/></g></g></svg>