<svg xmlns="http://www.w3.org/2000/svg" viewBox="0 0 21.72 33.85"><defs><style>.cls-1{fill:#d7e1eb;}</style></defs><g id="Capa_2" data-name="Capa 2"><g id="Layer_1" data-name="Layer 1"><path class="cls-1" d="M16.69,10.84a5.92,5.92,0,0,0-5.83-6,5.92,5.92,0,0,0-5.83,6,5.91,5.91,0,0,0,5.83,6A5.91,5.91,0,0,0,16.69,10.84Zm-10,0a4.21,4.21,0,0,1,4.15-4.27A4.21,4.21,0,0,1,15,10.84a4.21,4.21,0,0,1-4.15,4.26A4.21,4.21,0,0,1,6.71,10.84Z"/><path class="cls-1" d="M14.31,29.35c2.91-4.09,7.41-12.18,7.41-18.19A11,11,0,0,0,10.86,0,11,11,0,0,0,0,11.16c0,6,4.5,14.1,7.41,18.19-2.3.4-3.87,1.19-3.87,2.11,0,1.31,3.24,2.37,7.24,2.39h.16c4,0,7.24-1.08,7.24-2.39C18.18,30.54,16.61,29.75,14.31,29.35ZM1.68,11.16a9.33,9.33,0,0,1,9.18-9.44A9.33,9.33,0,0,1,20,11.16c0,6.23-4.85,14.25-7.55,18-.53,0-1.07-.06-1.63-.06s-1.1,0-1.63.06C6.53,25.41,1.68,17.39,1.68,11.16Z"/></g></g></svg>