<svg xmlns="http://www.w3.org/2000/svg" viewBox="0 0 32.9 26.96"><defs><style>.cls-1{fill:#0a68cb;}</style></defs><g id="Capa_2" data-name="Capa 2"><g id="Capa_1-2" data-name="Capa 1"><g id="Capa_2-2" data-name="Capa 2"><g id="Layer_1" data-name="Layer 1"><path class="cls-1" d="M21.87,3.14l-.42-.05a4.67,4.67,0,0,0-4.79.9h-.05l-.67.67a4.46,4.46,0,0,0-5.13-.28L8,1.52l-8,8,3.33,3.4A7.71,7.71,0,0,0,4.77,17,11.71,11.71,0,0,0,6.1,18.65c.62.63,1.25,1.25,1.88,1.88a1.83,1.83,0,0,0,.32,2.55,2.08,2.08,0,0,0,2.41.57h0c.72,1.07,1.38,1.59,2.09,1.65l.89.86A2.77,2.77,0,0,0,17,26.6a1.82,1.82,0,0,0,.77-.85c1.8,1.51,3,1.53,4.4-.58h0a2.08,2.08,0,0,0,2.41-.57,1.85,1.85,0,0,0,.3-2.6l-.1-.12-.22-.28a1.74,1.74,0,0,0,1.33-.7,2,2,0,0,0-.09-2.77l1-1a10.84,10.84,0,0,0,1.33-1.61,7.78,7.78,0,0,0,1.44-4.15L32.9,8l-8-8ZM6.58,17.49a7.41,7.41,0,0,1-1.91-3.25,7.56,7.56,0,0,1-.14-.83,4.33,4.33,0,0,1,0-.72L1.45,9.63,8,3l2.11,2.12.14.14h0l1,.08.07-.16c.4-.28,2.07-1.2,4.3.5l3,3a.8.8,0,0,1,0,1.12l-.19.2a.81.81,0,0,1-1.12,0l-3-3-.74.51.82,1,.35.36-1,1a.74.74,0,0,0-.16.27v.06l-6.2,6.06A3.16,3.16,0,0,0,6.58,17.49Zm9.79,8.23a1,1,0,0,1-.83.33,1.76,1.76,0,0,1-1-.64L14.07,25a6.63,6.63,0,0,0,1.07-.75,1.82,1.82,0,0,0,.77.85,2.53,2.53,0,0,0,.64.26A.87.87,0,0,1,16.37,25.72Zm4.35-.41c-.45.53-1,.58-1.63,0-.11-.09-.21-.19-.31-.29a2.51,2.51,0,0,0,.41-.32l1.13-1.11.12.12C21.07,24.3,21.15,24.8,20.72,25.31Zm3.15-1.65c-.45.62-1.15.64-1.78,0l-.93-.93,1.54-1.5c.28.29.58.57.86.86C24.12,22.66,24.21,23.19,23.87,23.66ZM25.15,20a1,1,0,0,1-1.37.6l-.1,0-.16-.1L25,18.94A1,1,0,0,1,25.15,20Zm6.3-11.85-3.06,3.07a4.21,4.21,0,0,1,0,.71,4.91,4.91,0,0,1-.14.84A7.25,7.25,0,0,1,26.31,16c-1.26,1.32-2.57,2.58-3.85,3.87s-2.7,2.7-4.06,4a1.7,1.7,0,0,1-1,.63,1,1,0,0,1-.82-.33,1.19,1.19,0,0,1-.2-1,2.35,2.35,0,0,1,.65-.91c.62-.63,1.24-1.25,1.87-1.87l.9-.92c.31-.33,1.24-1,.72-1.51s-1.16.42-1.45.71-.6.61-.91.91c-1.43,1.39-2.84,2.8-4.3,4.16-.66.61-1.18.57-1.63,0s-.35-1,.27-1.64l4.86-4.86a1.12,1.12,0,0,0,.46-.72.41.41,0,0,0-.28-.51h0a.94.94,0,0,0-.93.39L10.86,22.1a1.09,1.09,0,0,1-1.52.27,1,1,0,0,1-.27-.27c-.34-.47-.24-1,.31-1.56l5.81-5.81c.32-.31.57-.66.18-1s-.69,0-1,.25l-4.5,4.49a3,3,0,0,1-.65.53,1,1,0,0,1-1.37-.34.81.81,0,0,1-.1-.21,1.14,1.14,0,0,1,.44-1.35c2.48-2.47,5-4.94,7.41-7.42l1,1a1.79,1.79,0,0,0,2.51,0l.19-.19a1.77,1.77,0,0,0,.06-2.44L17.12,5.8h0l-.44-.45.6-.6a4.31,4.31,0,0,1,2.44-1,4.41,4.41,0,0,1,2.36.54l.67-.66,2.11-2.12Z"/></g></g></g></g></svg>