<svg xmlns="http://www.w3.org/2000/svg" viewBox="0 0 32.9 26.96"><defs><style>.cls-1{fill:#fff;}</style></defs><g id="Capa_2" data-name="Capa 2"><g id="Layer_1" data-name="Layer 1"><path class="cls-1" d="M21.87,3.14l-.42-.05a4.67,4.67,0,0,0-4.79.9l-.05,0-.67.67a4.46,4.46,0,0,0-5.13-.28L8,1.52l-8,8,3.33,3.4A7.73,7.73,0,0,0,4.77,17,11.38,11.38,0,0,0,6.1,18.65c.62.63,1.25,1.25,1.88,1.88a1.82,1.82,0,0,0,.32,2.55,2.07,2.07,0,0,0,2.41.57s0,0,0,0c.72,1.07,1.38,1.59,2.09,1.65l.89.86A2.76,2.76,0,0,0,17,26.6a1.84,1.84,0,0,0,.77-.85c1.8,1.51,3,1.53,4.4-.58h0a2.08,2.08,0,0,0,2.41-.57,1.85,1.85,0,0,0,.2-2.72s-.23-.29-.22-.28a1.72,1.72,0,0,0,1.33-.7,2,2,0,0,0-.09-2.77l1-1a11.38,11.38,0,0,0,1.33-1.61,7.82,7.82,0,0,0,1.44-4.15L32.9,8l-8-8ZM6.58,17.49a7.43,7.43,0,0,1-1.91-3.25,7.56,7.56,0,0,1-.14-.83,5.72,5.72,0,0,1,0-.72L1.45,9.63,8,3l2.11,2.12.14.14v0l1,.08.07-.16c.4-.28,2.07-1.2,4.3.5l3,3a.79.79,0,0,1,.23.56.77.77,0,0,1-.23.56l-.19.2a.8.8,0,0,1-1.12,0l-3-3-.74.51.82,1,.35.36-1,1a.69.69,0,0,0-.16.27l0,.06L7.38,16.26A3.2,3.2,0,0,0,6.58,17.49Zm9.79,8.23a1.06,1.06,0,0,1-.83.33,1.8,1.8,0,0,1-1-.64L14.07,25a6.61,6.61,0,0,0,1.07-.75,1.84,1.84,0,0,0,.77.85,2.53,2.53,0,0,0,.64.26A.91.91,0,0,1,16.37,25.72Zm4.35-.41c-.45.53-1,.58-1.63,0-.11-.09-.21-.19-.31-.29a2.51,2.51,0,0,0,.41-.32l1.13-1.11.12.12C21.07,24.3,21.15,24.8,20.72,25.31Zm3.15-1.65c-.45.62-1.15.64-1.78,0l-.93-.93,1.54-1.5c.28.29.58.57.86.86C24.12,22.66,24.21,23.19,23.87,23.66ZM25.15,20a1.06,1.06,0,0,1-1.47.56l-.16-.1L25,18.94A1,1,0,0,1,25.15,20Zm6.3-11.85-3.06,3.07a5.54,5.54,0,0,1,0,.71,4.6,4.6,0,0,1-.14.84A7.32,7.32,0,0,1,26.31,16c-1.26,1.32-2.57,2.58-3.85,3.87s-2.7,2.7-4.06,4a1.71,1.71,0,0,1-1,.63,1,1,0,0,1-.82-.33,1.2,1.2,0,0,1-.2-1,2.36,2.36,0,0,1,.65-.91c.62-.63,1.24-1.25,1.87-1.87l.9-.92c.31-.33,1.24-1,.72-1.51s-1.16.42-1.45.71-.6.61-.91.91c-1.43,1.39-2.84,2.8-4.3,4.16-.66.61-1.18.57-1.63,0s-.35-1,.27-1.64l4.86-4.86a1.1,1.1,0,0,0,.46-.72.41.41,0,0,0-.32-.52.93.93,0,0,0-.93.39c-1.9,1.9-3.8,3.81-5.71,5.71a1.09,1.09,0,0,1-1.79,0c-.34-.47-.24-1,.31-1.56l5.81-5.81c.32-.31.57-.66.18-1s-.69,0-1,.25L9.87,18.47a3,3,0,0,1-.65.53,1,1,0,0,1-1.47-.55c-.24-.6.07-1,.44-1.35,2.48-2.47,5-4.94,7.41-7.42l1,1a1.76,1.76,0,0,0,1.26.52,1.79,1.79,0,0,0,1.25-.51l.19-.19a1.77,1.77,0,0,0,.06-2.44L17.12,5.8h0l-.44-.45.6-.6a4.33,4.33,0,0,1,2.44-1,4.43,4.43,0,0,1,2.36.54l.67-.66,2.11-2.12Z"/></g></g></svg>